<?xml version="1.0" standalone="no"?><!DOCTYPE svg PUBLIC "-//W3C//DTD SVG 1.1//EN" "http://www.w3.org/Graphics/SVG/1.1/DTD/svg11.dtd"><svg xmlns="http://www.w3.org/2000/svg" viewBox="0 0 750 400" version="1.1"><clipPath id="box"><rect x="0" y="0" width="750" height="400" style="fill:none;stroke:none;" /></clipPath><g clip-path="url(#box)"><rect x="0.00" y="0.00" width="750.00" height="400.00" style="fill:#FFFFFF;stroke:none;" /><path d="M0.00 400.00 L750.00 400.00 M0.00 350.00 L750.00 350.00 M0.00 300.00 L750.00 300.00 M0.00 250.00 L750.00 250.00 M0.00 200.00 L750.00 200.00 M0.00 150.00 L750.00 150.00 M0.00 100.00 L750.00 100.00 M0.00 50.00 L750.00 50.00 M0.00 0.00 L750.00 0.00 M0.00 0.00 L0.00 400.00 M93.00 0.00 L93.00 400.00 M187.00 0.00 L187.00 400.00 M281.00 0.00 L281.00 400.00 M375.00 0.00 L375.00 400.00 M468.00 0.00 L468.00 400.00 M562.00 0.00 L562.00 400.00 M656.00 0.00 L656.00 400.00 M750.00 0.00 L750.00 400.00 " style="fill:none;stroke:#D0D0D0;stroke-width:1;" /><path d="M375.00 0.00 L375.00 400.00 " style="fill:none;stroke:#000000;stroke-width:1;" /><path d="M367.50 400.00 L382.50 400.00 M367.50 350.00 L382.50 350.00 M367.50 300.00 L382.50 300.00 M367.50 250.00 L382.50 250.00 M367.50 200.00 L382.50 200.00 M367.50 150.00 L382.50 150.00 M367.50 100.00 L382.50 100.00 M367.50 50.00 L382.50 50.00 M367.50 0.00 L382.50 0.00 " style="fill:none;stroke:#000000;stroke-width:1;" /><path d="M0.00 200.00 L750.00 200.00 " style="fill:none;stroke:#000000;stroke-width:1;" /><path d="M0.00 192.50 L0.00 207.50 M93.75 192.50 L93.75 207.50 M187.50 192.50 L187.50 207.50 M281.25 192.50 L281.25 207.50 M375.00 192.50 L375.00 207.50 M468.75 192.50 L468.75 207.50 M562.50 192.50 L562.50 207.50 M656.25 192.50 L656.25 207.50 M750.00 192.50 L750.00 207.50 " style="fill:none;stroke:#000000;stroke-width:1;" /><text x="384.375" y="352.5" text-anchor="start" style="font:10px Droid Sans,Trebuchet MS,Arial,Helvetica,sans-serif;stroke:none;fill:#000000">-1.5</text><text x="384.375" y="302.5" text-anchor="start" style="font:10px Droid Sans,Trebuchet MS,Arial,Helvetica,sans-serif;stroke:none;fill:#000000">-1</text><text x="384.375" y="252.5" text-anchor="start" style="font:10px Droid Sans,Trebuchet MS,Arial,Helvetica,sans-serif;stroke:none;fill:#000000">-0.5</text><text x="384.375" y="202.5" text-anchor="start" style="font:10px Droid Sans,Trebuchet MS,Arial,Helvetica,sans-serif;stroke:none;fill:#000000">0</text><text x="384.375" y="152.5" text-anchor="start" style="font:10px Droid Sans,Trebuchet MS,Arial,Helvetica,sans-serif;stroke:none;fill:#000000">0.5</text><text x="384.375" y="102.5" text-anchor="start" style="font:10px Droid Sans,Trebuchet MS,Arial,Helvetica,sans-serif;stroke:none;fill:#000000">1</text><text x="384.375" y="52.5" text-anchor="start" style="font:10px Droid Sans,Trebuchet MS,Arial,Helvetica,sans-serif;stroke:none;fill:#000000">1.5</text><text x="93.75" y="217.375" text-anchor="middle" style="font:10px Droid Sans,Trebuchet MS,Arial,Helvetica,sans-serif;stroke:none;fill:#000000">-15</text><text x="187.5" y="217.375" text-anchor="middle" style="font:10px Droid Sans,Trebuchet MS,Arial,Helvetica,sans-serif;stroke:none;fill:#000000">-10</text><text x="281.25" y="217.375" text-anchor="middle" style="font:10px Droid Sans,Trebuchet MS,Arial,Helvetica,sans-serif;stroke:none;fill:#000000">-5</text><text x="375" y="217.375" text-anchor="middle" style="font:10px Droid Sans,Trebuchet MS,Arial,Helvetica,sans-serif;stroke:none;fill:#000000">0</text><text x="468.75" y="217.375" text-anchor="middle" style="font:10px Droid Sans,Trebuchet MS,Arial,Helvetica,sans-serif;stroke:none;fill:#000000">5</text><text x="562.5" y="217.375" text-anchor="middle" style="font:10px Droid Sans,Trebuchet MS,Arial,Helvetica,sans-serif;stroke:none;fill:#000000">10</text><text x="656.25" y="217.375" text-anchor="middle" style="font:10px Droid Sans,Trebuchet MS,Arial,Helvetica,sans-serif;stroke:none;fill:#000000">15</text><path d="M-10.00 200.00 L-0.25 100.00 L0.75 100.00 L2.75 100.00 L4.75 100.00 L6.75 100.00 L8.75 100.00 L10.75 100.00 L12.75 100.00 L14.75 100.00 L16.75 100.00 L18.75 100.00 L20.75 100.00 L22.75 100.00 L24.75 100.00 L26.75 100.00 L28.75 100.00 L30.75 100.00 L32.75 100.00 L34.75 100.00 L36.75 100.00 L38.75 100.00 L40.75 100.00 L42.75 100.00 L44.75 100.00 L46.75 100.00 L48.75 100.00 L50.75 100.00 L52.75 100.00 L54.75 100.00 L56.75 100.00 L58.75 100.00 L60.75 100.00 L62.75 100.00 L64.75 100.00 L66.75 100.00 L68.75 100.00 L70.75 100.00 L72.75 100.00 L74.75 100.00 L76.75 100.00 L78.75 100.00 L80.75 100.00 L82.75 100.00 L84.75 100.00 L86.75 100.00 L88.75 100.00 L90.75 100.00 L92.75 100.00 L94.75 100.00 L96.75 100.00 L98.75 100.00 L100.75 100.00 L102.75 100.00 L104.75 100.00 L106.75 100.00 L108.75 100.00 L110.75 100.00 L112.75 100.00 L114.75 100.00 L116.75 100.00 L118.75 100.00 L120.75 100.00 L122.75 100.00 L124.75 100.00 L126.75 100.00 L128.75 100.00 L130.75 100.00 L132.75 100.00 L134.75 100.00 L136.75 100.00 L138.75 100.00 L140.75 100.00 L142.75 100.00 L144.75 100.00 L146.75 100.00 L148.75 100.00 L150.75 100.00 L152.75 100.00 L154.75 100.00 L156.75 100.00 L158.75 100.00 L160.75 100.00 L162.75 100.00 L164.75 100.00 L166.75 100.00 L168.75 100.00 L170.75 100.00 L172.75 100.00 L174.75 100.00 L176.75 100.00 L178.75 100.00 L180.75 100.00 L182.75 100.00 L184.75 100.00 L186.75 100.00 L188.75 100.00 L190.75 100.00 L192.75 100.00 L194.75 100.00 L196.75 100.00 L198.75 100.00 L200.75 100.00 L202.75 100.00 L204.75 100.00 L206.75 100.00 L208.75 100.00 L210.75 100.00 L212.75 100.00 L214.75 100.00 L216.75 100.00 L218.75 100.00 L220.75 100.00 L222.75 100.00 L224.75 100.00 L226.75 100.00 L228.75 100.00 L230.75 100.00 L232.75 100.00 L234.75 100.00 L236.75 100.00 L238.75 100.00 L240.75 100.00 L242.75 100.00 L244.75 100.00 L246.75 100.00 L248.75 100.00 L250.75 100.00 L252.75 100.00 L254.75 100.00 L256.75 100.00 L258.75 100.00 L260.75 100.00 L262.75 100.00 L264.75 100.00 L266.75 100.00 L268.75 100.00 L270.75 100.00 L272.75 100.00 L274.75 100.00 L276.75 100.00 L278.75 100.00 L280.75 100.00 L282.75 100.00 L284.75 100.00 L286.75 100.00 L288.75 100.00 L290.75 100.00 L292.75 100.00 L294.75 100.00 L296.75 100.00 L298.75 100.00 L300.75 100.00 L302.75 100.00 L304.75 100.00 L306.75 100.00 L308.75 100.00 L310.75 100.00 L312.75 100.00 L314.75 100.00 L316.75 100.00 L318.75 100.00 L320.75 100.00 L322.75 100.00 L324.75 100.00 L326.75 100.00 L328.75 100.00 L330.75 100.00 L332.75 100.00 L334.75 100.00 L336.75 100.00 L338.75 100.00 L340.75 100.00 L342.75 100.00 L344.75 100.00 L346.75 100.00 L348.75 100.00 L350.75 100.00 L352.75 100.00 L354.75 100.00 L356.75 100.00 L358.75 100.00 L360.75 100.00 L362.75 100.00 L364.75 100.00 L366.75 100.00 L368.75 100.00 L370.75 100.00 L372.75 100.00 L374.75 100.00 L376.75 100.00 L378.75 100.01 L380.75 100.01 L382.75 100.01 L384.75 100.01 L386.75 100.01 L388.75 100.01 L390.75 100.01 L392.75 100.01 L394.75 100.01 L396.75 100.01 L398.75 100.02 L400.75 100.02 L402.75 100.02 L404.75 100.02 L406.75 100.02 L408.75 100.03 L410.75 100.03 L412.75 100.03 L414.75 100.04 L416.75 100.04 L418.75 100.05 L420.75 100.05 L422.75 100.06 L424.75 100.06 L426.75 100.07 L428.75 100.08 L430.75 100.09 L432.75 100.10 L434.75 100.11 L436.75 100.12 L438.75 100.14 L440.75 100.15 L442.75 100.17 L444.75 100.19 L446.75 100.21 L448.75 100.23 L450.75 100.26 L452.75 100.29 L454.75 100.32 L456.75 100.35 L458.75 100.39 L460.75 100.44 L462.75 100.49 L464.75 100.54 L466.75 100.60 L468.75 100.67 L470.75 100.74 L472.75 100.83 L474.75 100.92 L476.75 101.02 L478.75 101.14 L480.75 101.26 L482.75 101.40 L484.75 101.56 L486.75 101.73 L488.75 101.92 L490.75 102.13 L492.75 102.37 L494.75 102.63 L496.75 102.91 L498.75 103.23 L500.75 103.58 L502.75 103.97 L504.75 104.39 L506.75 104.86 L508.75 105.38 L510.75 105.95 L512.75 106.58 L514.75 107.27 L516.75 108.02 L518.75 108.84 L520.75 109.74 L522.75 110.72 L524.75 111.78 L526.63 112.86 L528.37 113.94 L529.98 115.00 L531.50 116.06 L532.93 117.12 L534.28 118.17 L535.57 119.22 L536.81 120.26 L537.99 121.30 L539.13 122.33 L540.23 123.37 L541.29 124.40 L542.33 125.43 L543.33 126.45 L544.30 127.48 L545.26 128.50 L546.19 129.52 L547.10 130.54 L547.99 131.56 L548.86 132.58 L549.73 133.60 L550.57 134.61 L551.41 135.63 L552.23 136.64 L553.04 137.65 L553.85 138.66 L554.64 139.67 L555.43 140.68 L556.21 141.69 L556.98 142.69 L557.75 143.70 L558.51 144.71 L559.27 145.71 L560.03 146.71 L560.79 147.72 L561.54 148.72 L562.29 149.72 L563.04 150.72 L563.79 151.72 L564.54 152.72 L565.29 153.72 L566.04 154.71 L566.80 155.71 L567.56 156.70 L568.32 157.70 L569.09 158.69 L569.86 159.68 L570.63 160.68 L571.42 161.67 L572.20 162.66 L573.00 163.65 L573.81 164.64 L574.62 165.62 L575.45 166.61 L576.29 167.60 L577.14 168.58 L578.00 169.56 L578.88 170.54 L579.77 171.53 L580.68 172.51 L581.61 173.48 L582.56 174.46 L583.54 175.44 L584.54 176.41 L585.56 177.38 L586.62 178.35 L587.70 179.32 L588.83 180.28 L589.99 181.25 L591.20 182.21 L592.46 183.17 L593.77 184.12 L595.14 185.08 L596.58 186.03 L598.09 186.97 L599.70 187.91 L601.41 188.85 L603.23 189.77 L605.20 190.70 L607.20 191.56 L609.20 192.35 L611.20 193.07 L613.20 193.73 L615.20 194.32 L617.20 194.87 L619.20 195.36 L621.20 195.81 L623.20 196.22 L625.20 196.59 L627.20 196.92 L629.20 197.23 L631.20 197.50 L633.20 197.75 L635.20 197.97 L637.20 198.17 L639.20 198.35 L641.20 198.52 L643.20 198.67 L645.20 198.80 L647.20 198.92 L649.20 199.03 L651.20 199.13 L653.20 199.21 L655.20 199.29 L657.20 199.36 L659.20 199.43 L661.20 199.49 L663.20 199.54 L665.20 199.58 L667.20 199.63 L669.20 199.66 L671.20 199.70 L673.20 199.73 L675.20 199.76 L677.20 199.78 L679.20 199.80 L681.20 199.82 L683.20 199.84 L685.20 199.86 L687.20 199.87 L689.20 199.88 L691.20 199.90 L693.20 199.91 L695.20 199.92 L697.20 199.92 L699.20 199.93 L701.20 199.94 L703.20 199.94 L705.20 199.95 L707.20 199.96 L709.20 199.96 L711.20 199.96 L713.20 199.97 L715.20 199.97 L717.20 199.97 L719.20 199.98 L721.20 199.98 L723.20 199.98 L725.20 199.98 L727.20 199.98 L729.20 199.99 L731.20 199.99 L733.20 199.99 L735.20 199.99 L737.20 199.99 L739.20 199.99 L741.20 199.99 L743.20 199.99 L745.20 199.99 L747.20 199.99 L749.20 200.00 " style="fill:none;stroke:#000000;stroke-width:1;" /></g></svg>